{"title":"Dik Trom (2010)DVDR2DIVX (DUTCH) Vlinder TBS","uid":6219439,"size":1567664508,"categoryP":"video","categoryS":"movies","magnet":"?xt=urn:btih:a978bf5898d16412347077d6cb9fef7b614ca559&amp;dn=Dik+Trom+%282010%29DVDR2DIVX+%28DUTCH%29+Vlinder+TBS&amp;tr=udp%3A%2F%2Ftracker.openbittorrent.com%3A80&amp;tr=udp%3A%2F%2Fopen.demonii.com%3A1337&amp;tr=udp%3A%2F%2Ftracker.coppersurfer.tk%3A6969&amp;tr=udp%3A%2F%2Fexodus.desync.com%3A6969","seeders":1,"leechers":0,"uploader":"Vlinder2","files":-1,"time":1299278479,"description":"Dik Trom (2010) DIVX \n\n\n\n\nNederland\nKomedie\n85 minuten\n\ngeregisseerd door Arne Toonen\nmet Michael Nierse, Marcel Musters en Eva van der Gucht\n\nDik Trom is een vrolijke, eerlijke, beetje gezette jongen. Samen met zijn ouders woont hij in het knusse Dikkedam, waar iedereen net zo dik en uitbundig is als hij. Dan verhuist Dik met zijn ouders naar Dunhoven, waar niemand zo dik is als Dik. Het mooiste meisje van Dunhoven is Lieve, zo vindt Dik, maar Dik is niet de enige die zijn oog heeft laten vallen op de mooie Lieve. Ook Viktor, de brutale zoon van sportschoolhouder Dolf, dingt naar haar hand. De strijd tussen de twee kemphanen zal beslecht worden tijdens de lokale zomerwedstrijd.\n\n\n\n &lt;a href=&quot;\nhttp://www.moviemeter.nl/film/67812&quot; rel=&quot;nofollow&quot; target=&quot;_NEW&quot;&gt;\nhttp://www.moviemeter.nl/film/67812&lt;/a&gt;\n\nDik Trom is a cheerful, honest, regular little boy. Together with his parents, he lives in the cozy Dikkedam, where everyone is as thick and exuberant as he. Then moved with his parents to Dunhoven Dik, where no one is as thick as thick. The prettiest girl is Dunhoven Dear, is so thick, but Fat is not the only one who has dropped his eye on the beautiful Lady. Viktor Also, the brutal son of Dolf gym owner, is competing for her hand. The battle between the two adversaries will be settled during the local summer event. \n\n\n\n\n\n\nEnglish\n\n &lt;a href=&quot;\nhttp://www.imdb.com/title/tt1711465/&quot; rel=&quot;nofollow&quot; target=&quot;_NEW&quot;&gt;\nhttp://www.imdb.com/title/tt1711465/&lt;/a&gt;\n\n\nSource.........: DVD5 NL Retail (PAL)\nFormaat........: AVI\nVideo CODEC....: XVIX\nAudio..........: Dutch AC3\nBitrate........: 2071 Kbit/s\nWidth &amp; Height.: 720 x 32\nFrames/s.......: 25.000 Fps\n\n\nmedia info\n\nGeneral\nComplete name                    : DIK TROM rental (2011) AC3 DD51 Nederlands\\DIK TROM rental  2011.avi\nFormat                           : DivX\nFormat/Info                      : Hack of AVI\nFile size                        : 1.46 GiB\nDuration                         : 1h 22mn\nOverall bit rate                 : 2 520 Kbps\n\nVideo\nID                               : 0\nFormat                           : MPEG-4 Visual\nFormat profile                   : Advanced Simple@L5\nFormat settings, BVOP            : Yes\nFormat settings, QPel            : No\nFormat settings, GMC             : No warppoints\nFormat settings, Matrix          : Default (H.263)\nMuxing mode                      : Packed bitstream\nCodec ID                         : DX50\nCodec ID/Hint                    : DivX 5\nDuration                         : 1h 22mn\nBit rate                         : 2 062 Kbps\nWidth                            : 720 pixels\nHeight                           : 320 pixels\nDisplay aspect ratio             : 2.25:1\nFrame rate                       : 25.000 fps\nColor space                      : YUV\nChroma subsampling               : 4:2:0\nBit depth                        : 8 bits\nScan type                        : Progressive\nBits/(Pixel*Frame)               : 0.358\nStream size                      : 1.19 GiB (82%)\nTitle                            : Video \nWriting library                  : XviD 1.2.1 (UTC 2008-12-04)\n\nAudio\nID                               : 1\nFormat                           : AC-3\nFormat/Info                      : Audio Coding 3\nMode extension                   : CM (complete main)\nCodec ID                         : 2000\nDuration                         : 1h 22mn\nBit rate mode                    : Constant\nBit rate                         : 448 Kbps\nChannel(s)                       : 6 channels\nChannel positions                : Front: L C R, Side: L R, LFE\nSampling rate                    : 48.0 KHz\nBit depth                        : 16 bits\nStream size                      : 266 MiB (18%)\nAlignment                        : Split accross interleaves\nInterleave, duration             : 40 ms (1.00 video frame)\nInterleave, preload duration     : 500 ms\nTitle                            : Audio \n\n\n\n\n\n\n\nWeblink : &lt;a href=&quot; http://www.moviemeter.nl/film/67812&quot; rel=&quot;nofollow&quot; target=&quot;_NEW&quot;&gt; http://www.moviemeter.nl/film/67812&lt;/a&gt;\nWeblink : &lt;a href=&quot; http://www.imdb.com/title/tt1711465/&quot; rel=&quot;nofollow&quot; target=&quot;_NEW&quot;&gt; http://www.imdb.com/title/tt1711465/&lt;/a&gt;\n\nTBS\n\n\n","torrent":{"xt":"urn:btih:a978bf5898d16412347077d6cb9fef7b614ca559","amp;dn":"Dik+Trom+%282010%29DVDR2DIVX+%28DUTCH%29+Vlinder+TBS","amp;tr":["udp%3A%2F%2Ftracker.openbittorrent.com%3A80","udp%3A%2F%2Fopen.demonii.com%3A1337","udp%3A%2F%2Ftracker.coppersurfer.tk%3A6969","udp%3A%2F%2Fexodus.desync.com%3A6969"],"infoHash":"a978bf5898d16412347077d6cb9fef7b614ca559","infoHashBuffer":{"type":"Buffer","data":[169,120,191,88,152,209,100,18,52,112,119,214,203,159,239,123,97,76,165,89]},"announce":[],"urlList":[]}}